<svg id="Layer_1"
    xmlns="http://www.w3.org/2000/svg" viewBox="0 0 446.86 495.4"><defs><style>.cls-1{fill:#efefef;}.cls-2,.cls-4{fill:#087e2e;}.cls-2{stroke:#000;stroke-miterlimit:10;stroke-width:20px;}.cls-3{fill:#f6f9f9;}.cls-5{fill:#dae4ea;}.cls-6{fill:#2fdf84;}.cls-7{fill:#219542;}</style></defs><path class="cls-1" d="M212.47,592.24c98.37,0,165.93,51,213.33,51s147-27.25,147-245.32S438.83,147.8,386.69,147.8c-244.16,0-348.45,444.44-174.22,444.44Z" transform="translate(-125.9 -147.8)"/><rect class="cls-2" x="99.94" y="112.1" width="291.21" height="290.66"/><path class="cls-3" d="M515.07,307.75l-125.61-9.33-160.89,9.33V536.91c0,4,3.55,7.23,7.92,7.23H507.15c4.38,0,7.92-3.24,7.92-7.23Z" transform="translate(-125.9 -147.8)"/><path class="cls-4" d="M507.12,262.31H236.47c-4.38,0-7.93,3.24-7.93,7.23v35H515.05v-35C515.05,265.55,511.5,262.31,507.12,262.31Z" transform="translate(-125.9 -147.8)"/><path class="cls-4" d="M507.12,265.31H489v42.25h26.06v-35C515.05,268.55,511.5,265.31,507.12,265.31Z" transform="translate(-125.9 -147.8)"/><path class="cls-5" d="M269,288.25h-4.45c-4.36,0-7.9-3.23-7.9-7.21V255.65c0-4,3.54-7.21,7.9-7.21H269c4.36,0,7.89,3.23,7.89,7.21V281C276.93,285,273.4,288.25,269,288.25Z" transform="translate(-125.9 -147.8)"/><path class="cls-5" d="M321.53,288.25h-4.45c-4.36,0-7.9-3.23-7.9-7.21V255.65c0-4,3.54-7.21,7.9-7.21h4.45c4.36,0,7.9,3.23,7.9,7.21V281C329.43,285,325.89,288.25,321.53,288.25Z" transform="translate(-125.9 -147.8)"/><path class="cls-5" d="M374,288.25h-4.45c-4.36,0-7.9-3.23-7.9-7.21V255.65c0-4,3.54-7.21,7.9-7.21H374c4.36,0,7.9,3.23,7.9,7.21V281C381.92,285,378.38,288.25,374,288.25Z" transform="translate(-125.9 -147.8)"/><path class="cls-5" d="M426.51,288.25h-4.45c-4.36,0-7.9-3.23-7.9-7.21V255.65c0-4,3.54-7.21,7.9-7.21h4.45c4.36,0,7.9,3.23,7.9,7.21V281C434.41,285,430.87,288.25,426.51,288.25Z" transform="translate(-125.9 -147.8)"/><path class="cls-5" d="M479,288.25h-4.45c-4.36,0-7.89-3.23-7.89-7.21V255.65c0-4,3.53-7.21,7.89-7.21H479c4.36,0,7.9,3.23,7.9,7.21V281C486.9,285,483.36,288.25,479,288.25Z" transform="translate(-125.9 -147.8)"/><path class="cls-6" d="M371.8,394.36A39.88,39.88,0,0,1,391,399.21c6.38-9.62,10.42-22.2,10.42-30.44,0-14.94-13.27-27-29.64-27s-29.63,12.11-29.63,27c0,8.24,4,20.82,10.42,30.44A39.89,39.89,0,0,1,371.8,394.36Z" transform="translate(-125.9 -147.8)"/><path class="cls-6" d="M336.26,417.92a33.84,33.84,0,0,1,11-15.18c-8.06-8.51-19.92-15.9-28.51-18.45-15.56-4.61-32.28,3.16-37.33,17.37s3.46,29.46,19,34.07c8.59,2.55,22.95,2.93,34.94.37a31.07,31.07,0,0,1,.88-18.18Z" transform="translate(-125.9 -147.8)"/><path class="cls-6" d="M349.83,456.05a34.8,34.8,0,0,1-12.42-14.24c-11.35,4.36-22.72,12.37-28,19-9.62,12.08-6.68,29,6.56,37.78s31.77,6.1,41.39-6c5.31-6.67,10.14-19,11.18-30.21a39.43,39.43,0,0,1-18.68-6.38Z" transform="translate(-125.9 -147.8)"/><path class="cls-6" d="M393.76,456.05a39.43,39.43,0,0,1-18.68,6.38c1,11.2,5.87,23.54,11.18,30.21,9.62,12.09,28.15,14.77,41.39,6s16.18-25.7,6.56-37.78c-5.31-6.67-16.68-14.68-28-19A34.74,34.74,0,0,1,393.76,456.05Z" transform="translate(-125.9 -147.8)"/><path class="cls-6" d="M407.33,417.92a31.07,31.07,0,0,1,.88,18.18c12,2.56,26.35,2.18,34.94-.37,15.56-4.61,24.08-19.87,19-34.08s-21.77-22-37.33-17.36c-8.59,2.55-20.45,9.94-28.51,18.45A33.84,33.84,0,0,1,407.33,417.92Z" transform="translate(-125.9 -147.8)"/><path class="cls-4" d="M371.8,398.82a4.69,4.69,0,0,1-4.89-4.46V367.94a4.91,4.91,0,0,1,9.77,0v26.42A4.69,4.69,0,0,1,371.8,398.82Z" transform="translate(-125.9 -147.8)"/><path class="cls-4" d="M336.26,422.38a5.26,5.26,0,0,1-1.51-.22L307.22,414a4.39,4.39,0,0,1-3.13-5.62,5,5,0,0,1,6.15-2.87l27.53,8.17a4.39,4.39,0,0,1,3.14,5.62,4.88,4.88,0,0,1-4.65,3.08Z" transform="translate(-125.9 -147.8)"/><path class="cls-4" d="M332.82,481.88A5.23,5.23,0,0,1,330,481a4.21,4.21,0,0,1-1.08-6.23l17-21.38a5.2,5.2,0,0,1,6.83-1,4.22,4.22,0,0,1,1.08,6.23l-17,21.37a5,5,0,0,1-3.95,1.84Z" transform="translate(-125.9 -147.8)"/><path class="cls-4" d="M410.77,481.88a5,5,0,0,1-3.95-1.84l-17-21.37a4.22,4.22,0,0,1,1.08-6.23,5.2,5.2,0,0,1,6.83,1l17,21.38a4.21,4.21,0,0,1-1.08,6.23A5.23,5.23,0,0,1,410.77,481.88Z" transform="translate(-125.9 -147.8)"/><path class="cls-4" d="M407.33,422.38a4.88,4.88,0,0,1-4.65-3.08,4.39,4.39,0,0,1,3.14-5.62l27.53-8.17a5,5,0,0,1,6.15,2.87,4.39,4.39,0,0,1-3.13,5.62l-27.53,8.16A5.26,5.26,0,0,1,407.33,422.38Z" transform="translate(-125.9 -147.8)"/><ellipse class="cls-7" cx="245.9" cy="280.66" rx="38.63" ry="35.26"/></svg>