<svg xmlns="http://www.w3.org/2000/svg" viewBox="0 0 86.43 167.81"><defs><style>.cls-1{fill:#ebebeb;}.cls-2{fill:#e0e0e0;}.cls-3{fill:#f5f5f5;}</style></defs><g id="Layer_2" data-name="Layer 2"><g id="Background_Complete" data-name="Background Complete"><path class="cls-1" d="M58.53,71.72C63.85,69,70.11,68.62,76,69.59c3.17.53,6.47,1.48,8.63,3.86s2.57,6.57.09,8.62c-1.47,1.21-3.53,1.4-5.44,1.38-4.62-.06-9.75-.87-13.44,1.91-2.1,1.58-3.51,4.22-6,5s-5.24-.69-6.55-2.91a10.16,10.16,0,0,1-.74-7.51A11.45,11.45,0,0,1,58.53,71.72Z"/><path class="cls-1" d="M46.36,48.21c3.25,4.64,9.56,3.1,12.49.27s4.17-6.94,5.3-10.85c2.57-9,5.17-18.34,3.25-27.45a15.27,15.27,0,0,0-3.5-7.46A8,8,0,0,0,56.35.21c-3.19.84-5.17,4-6.6,6.92a65.51,65.51,0,0,0-6.46,28.08c0,4.52.52,9.27,3.07,13"/><path class="cls-1" d="M37.43,54.87c3.53-4.19,4.2-10.3,2.63-15.54S34.94,29.62,30.85,26a49.5,49.5,0,0,0-16.48-9.72A17.58,17.58,0,0,0,7,15,7.79,7.79,0,0,0,.73,18.75C-1,22.06.66,26.07,2.46,29.35A125.59,125.59,0,0,0,13.29,45.84c3.24,4.18,7,8.31,11.91,10.2s10.08,1.67,12.7-1.76"/><path class="cls-2" d="M46.14,118.23a10,10,0,0,0,.29-2.11c.15-1.53.34-3.46.56-5.75a82.06,82.06,0,0,1,1.3-8.45,65.89,65.89,0,0,1,3.06-10,37,37,0,0,1,5.09-9,19.13,19.13,0,0,1,6.44-5.35,17.93,17.93,0,0,1,5.42-1.68,10.21,10.21,0,0,0,2.1-.31,9.85,9.85,0,0,0-2.14,0A16.43,16.43,0,0,0,62.61,77a18.91,18.91,0,0,0-6.79,5.39,35.89,35.89,0,0,0-5.27,9.2,61,61,0,0,0-3,10.13,70.79,70.79,0,0,0-1.12,8.55c-.19,2.45-.25,4.43-.29,5.79A9.56,9.56,0,0,0,46.14,118.23Z"/><path class="cls-2" d="M46.53,113.8a4.08,4.08,0,0,0,.06-1c0-.73,0-1.66,0-2.79,0-2.43,0-6,.13-10.29.21-8.68,1-18,2.4-31.19,1.37-12.39,3.21-26.8,5.14-36.17q.63-3.21,1.23-5.73c.37-1.69.69-3.14,1-4.31l.66-2.72a4.1,4.1,0,0,0,.17-1,3.79,3.79,0,0,0-.34.92l-.81,2.68c-.36,1.16-.73,2.61-1.15,4.28s-.91,3.59-1.36,5.72a314.7,314.7,0,0,0-5.4,33.56C46.8,79,46.15,91,46.09,99.73c-.05,4.35,0,7.87.15,10.3.07,1.14.13,2.07.17,2.8A4,4,0,0,0,46.53,113.8Z"/><path class="cls-2" d="M46.59,90.62a18.64,18.64,0,0,0,0-2.92c-.11-1.88-.37-4.59-.89-7.92A106.81,106.81,0,0,0,43.1,68.24a94,94,0,0,0-4.83-13.66A72.81,72.81,0,0,0,24.1,32.51a36.2,36.2,0,0,0-3.33-3.09c-.52-.44-1-.87-1.43-1.21l-1.29-.89a18.88,18.88,0,0,0-2.46-1.58c-.14.19,3.49,2.33,8.07,7.2a76.6,76.6,0,0,1,13.81,22,107.93,107.93,0,0,1,4.86,13.53c1.26,4.24,2.1,8.14,2.74,11.42s1,6,1.16,7.85A19.41,19.41,0,0,0,46.59,90.62Z"/><polygon class="cls-1" points="22.64 127.99 24.96 159.81 65.84 159.81 68.16 127.99 22.64 127.99"/><rect class="cls-1" x="18.69" y="115.45" width="54.35" height="12.54"/><polygon class="cls-2" points="18.69 158.59 18.69 162.07 21.24 162.07 72.14 162.07 72.14 158.59 18.69 158.59"/><polygon class="cls-2" points="23.74 167.81 21.24 161.69 70.19 161.69 67.27 167.81 23.74 167.81"/><path class="cls-3" d="M67.4,138.39s-.05.11-.19.29-.36.49-.61.81l-2.38,3-.11.14-.1-.14-5.85-8.1h.34l-5.76,8.16-.18.26-.21-.24-6.83-8.13h.4l-.38.47-6.11,7.66-.2.26L39,142.6l-5.76-8.15h.33l-7.1,8.09-.12.14-.1-.16-2.22-3.73-.57-1c-.13-.22-.19-.34-.17-.35a1.36,1.36,0,0,1,.23.32c.17.25.38.56.63.95.57.89,1.36,2.12,2.34,3.67l-.22,0,7-8.19.18-.2.15.22,5.82,8.12h-.39l6.09-7.67.38-.47.19-.25.2.24,6.81,8.14-.38,0,5.82-8.12.17-.23.17.23c2.3,3.3,4.26,6.09,5.72,8.18H64l2.48-3,.67-.77C67.31,138.47,67.39,138.38,67.4,138.39Z"/><path class="cls-3" d="M68.73,127.78c0,.14-10.24.26-22.88.26S23,127.92,23,127.78s10.24-.25,22.87-.25S68.73,127.64,68.73,127.78Z"/></g></g></svg>