<svg xmlns="http://www.w3.org/2000/svg" width="17.948" height="17.95" viewBox="0 0 17.948 17.95">
  <path id="home" d="M17.465,7.807h0L10.142.484a1.652,1.652,0,0,0-2.337,0L.487,7.8.48,7.809a1.652,1.652,0,0,0,1.1,2.815l.051,0h.292v5.388a1.936,1.936,0,0,0,1.934,1.934H6.721a.526.526,0,0,0,.526-.526V13.2a.883.883,0,0,1,.882-.882h1.69a.883.883,0,0,1,.882.882v4.224a.526.526,0,0,0,.526.526h2.865a1.936,1.936,0,0,0,1.934-1.934V10.627H16.3a1.653,1.653,0,0,0,1.169-2.82Zm0,0" transform="translate(0 0.001)" fill="#867d79"/>
</svg>
