<svg enable-background="new 0 0 36 36" height="512" viewBox="0 0 36 36" width="512" xmlns="http://www.w3.org/2000/svg" id="fi_3602580"><path d="m8.377 31.833c6.917 0 11.667 3.583 15 3.583s10.333-1.916 10.333-17.249-9.417-17.584-13.083-17.584c-17.167 0-24.5 31.25-12.25 31.25z" fill="#efefef"></path><g fill="#a4afc1"><path d="m26.555 4.389h1v2h-1z" transform="matrix(.707 -.707 .707 .707 4.117 20.713)"></path><path d="m30.621 8.455h1v2h-1z" transform="matrix(.707 -.707 .707 .707 2.433 24.78)"></path><path d="m29.945 4.889h2v1h-2z" transform="matrix(.707 -.707 .707 .707 5.253 23.459)"></path></g><path d="m29.25 10.75v4h-22.5v-4c0-1.1.9-2 2-2h18.5c1.1 0 2 .9 2 2z" fill="#2fdf84"></path><path d="m29.25 14.75v12.5c0 1.1-.9 2-2 2h-18.5c-1.1 0-2-.9-2-2v-12.5z" fill="#f3f3f1"></path><path d="m11 8.75h-2.25c-1.1 0-2 .9-2 2v4h2.25v-4c0-1.1.9-2 2-2z" fill="#00b871"></path><path d="m9 27.25v-12.5h-2.25v12.5c0 1.1.9 2 2 2h2.25c-1.1 0-2-.9-2-2z" fill="#d5dbe1"></path><path d="m5.75 6.75c-.827 0-1.5-.673-1.5-1.5s.673-1.5 1.5-1.5 1.5.673 1.5 1.5-.673 1.5-1.5 1.5zm0-2c-.276 0-.5.224-.5.5s.224.5.5.5.5-.224.5-.5-.224-.5-.5-.5z" fill="#a4afc1"></path><path d="m29.25 15.5h-22.5c-.414 0-.75-.336-.75-.75v-4c0-1.517 1.233-2.75 2.75-2.75h18.5c1.517 0 2.75 1.233 2.75 2.75v4c0 .414-.336.75-.75.75zm-21.75-1.5h21v-3.25c0-.689-.561-1.25-1.25-1.25h-18.5c-.689 0-1.25.561-1.25 1.25z"></path><path d="m27.25 30h-18.5c-1.517 0-2.75-1.233-2.75-2.75v-12.5c0-.414.336-.75.75-.75h22.5c.414 0 .75.336.75.75v12.5c0 1.517-1.233 2.75-2.75 2.75zm-19.75-14.5v11.75c0 .689.561 1.25 1.25 1.25h18.5c.689 0 1.25-.561 1.25-1.25v-11.75z"></path><path d="m11 6.75h1.5v4.5h-1.5z"></path><path d="m23.5 6.75h1.5v4.5h-1.5z"></path></svg>